<svg xmlns="http://www.w3.org/2000/svg" version="1.1" xmlns:xlink="http://www.w3.org/1999/xlink" xmlns:svgjs="http://svgjs.dev/svgjs" width="1440" height="749" preserveAspectRatio="none" viewBox="0 0 1440 749"><g mask="url(&quot;#SvgjsMask2497&quot;)" fill="none"><rect width="1440" height="749" x="0" y="0" fill="#0e2a47"></rect><path d="M26 749L775 0L1186 0L437 749z" fill="url(&quot;#SvgjsLinearGradient2498&quot;)"></path><path d="M560.2 749L1309.2 0L1502.7 0L753.7 749z" fill="url(&quot;#SvgjsLinearGradient2498&quot;)"></path><path d="M1397 749L648 0L184.5 0L933.5 749z" fill="url(&quot;#SvgjsLinearGradient2499&quot;)"></path><path d="M879.8 749L130.79999999999995 0L-56.700000000000045 0L692.3 749z" fill="url(&quot;#SvgjsLinearGradient2499&quot;)"></path><path d="M722.6702895078402 749L1440 31.670289507840153L1440 749z" fill="url(&quot;#SvgjsLinearGradient2498&quot;)"></path><path d="M0 749L717.3297104921598 749L 0 31.670289507840153z" fill="url(&quot;#SvgjsLinearGradient2499&quot;)"></path></g><defs><mask id="SvgjsMask2497"><rect width="1440" height="749" fill="#ffffff"></rect></mask><linearGradient x1="0%" y1="100%" x2="100%" y2="0%" id="SvgjsLinearGradient2498"><stop stop-color="rgba(15, 70, 185, 0.2)" offset="0"></stop><stop stop-opacity="0" stop-color="rgba(15, 70, 185, 0.2)" offset="0.66"></stop></linearGradient><linearGradient x1="100%" y1="100%" x2="0%" y2="0%" id="SvgjsLinearGradient2499"><stop stop-color="rgba(15, 70, 185, 0.2)" offset="0"></stop><stop stop-opacity="0" stop-color="rgba(15, 70, 185, 0.2)" offset="0.66"></stop></linearGradient></defs></svg>